<svg xmlns="http://www.w3.org/2000/svg" width="20" height="20" viewBox="0 0 20 20">
    <g fill="none" fill-rule="evenodd">
        <path d="M0 0h20v20H0z"/>
        <path fill="#383838" d="M5 2h10a2 2 0 0 1 2 2v9.456a3 3 0 0 1-1.256 2.441l-4.582 3.273a2 2 0 0 1-2.324 0l-4.582-3.273A3 3 0 0 1 3 13.457V4a2 2 0 0 1 2-2z"/>
        <path fill="#FFF" d="M6.257 9.772L8.77 12.8c.105.127.261.2.426.2a.563.563 0 0 0 .43-.199l4.063-4.782a.501.501 0 0 0-.041-.693.583.583 0 0 0-.74-.042L9.332 9.899a.432.432 0 0 1-.255.084.636.636 0 0 1-.269-.06l-1.916-.895a.534.534 0 0 0-.628.132.472.472 0 0 0-.007.612z"/>
    </g>
</svg>
