<svg xmlns="http://www.w3.org/2000/svg" width="20" height="20" viewBox="0 0 20 20">
    <g fill="none" fill-rule="evenodd">
        <path d="M0 0h20v20H0z"/>
        <g transform="translate(3 1)">
            <path fill="#383838" d="M2 0h2.5a2.269 2.269 0 0 0 2.269 2.269h.462A2.269 2.269 0 0 0 9.5 0H12a2 2 0 0 1 2 2v14a2 2 0 0 1-2 2H2a2 2 0 0 1-2-2V2a2 2 0 0 1 2-2z"/>
            <rect width="8" height="1" x="3" y="7" fill="#FFF" rx=".5"/>
            <rect width="4" height="1" x="3" y="11" fill="#FFF" rx=".5"/>
        </g>
    </g>
</svg>
