<svg xmlns="http://www.w3.org/2000/svg" width="20" height="20" viewBox="0 0 20 20">
    <g fill="none" fill-rule="evenodd">
        <path d="M0 0h20v20H0z"/>
        <path fill="#383838" d="M15.25 7h-.875V5.286C14.375 2.92 12.415 1 10 1S5.625 2.92 5.625 5.286V7H4.75C3.788 7 3 7.771 3 8.714v8.572C3 18.229 3.788 19 4.75 19h10.5c.962 0 1.75-.771 1.75-1.714V8.714C17 7.771 16.212 7 15.25 7zM10 14.786c-.963 0-1.75-.788-1.75-1.75 0-.963.787-1.75 1.75-1.75s1.75.787 1.75 1.75c0 .962-.787 1.75-1.75 1.75zM12.713 7H7.288V5.286c0-1.466 1.216-2.657 2.712-2.657 1.496 0 2.713 1.191 2.713 2.657V7z"/>
    </g>
</svg>
