<svg xmlns="http://www.w3.org/2000/svg" width="40" height="40" viewBox="0 0 40 40">
    <g fill="none" fill-rule="evenodd">
        <path d="M0 0h40v40H0z"/>
        <circle cx="20" cy="20" r="13" fill="#1963FF"/>
        <path fill="#FFF" d="M13.45 19.62l4.388 5.036c.19.219.466.344.756.344s.566-.124.76-.34l7.099-7.959a.818.818 0 0 0-.07-1.157 1.047 1.047 0 0 0-1.29-.074l-6.258 4.36a.787.787 0 0 1-.45.14c-.163 0-.324-.033-.473-.1l-3.362-1.496a.95.95 0 0 0-1.088.226.766.766 0 0 0-.012 1.02z"/>
    </g>
</svg>
